#!OML:ASF I:\Actors\actors\Patient Classification 1\Patient 1\Session 1\Subject1.ASF
:FULLY-SPECIFIED
:DEGREES
243
root 0.492259 17.5656 9.27398 12.1954 -3.31382 -9.72077
lowerback 4.34256 0.930916 7.11299
upperback -5.31761 1.97182 1.99787
thorax -7.89901 0.617934 -2.08806
lowerneck -4.84143 -3.4969 -2.3002
upperneck 19.337 -5.99635 7.61337
head 6.98642 -2.45114 2.39018
rclavicle -4.27387e-015 -1.03368e-014
rhumerus 5.78813 33.2643 -67.9515
rradius 114.167
rwrist 5.31859
rhand 22.3514 -32.7138
rfingers 7.12502
rthumb 46.7189 -55.5028
lclavicle -4.27387e-015 -1.03368e-014
lhumerus -35.7275 -17.7733 99.2133
lradius 105.999
lwrist 18.4967
lhand -30.2554 -9.09913
lfingers 7.12502
lthumb -3.56414 20.8508
rfemur -8.52079 21.3814 25.1408
rtibia 4.68171
rfoot -11.437 -21.3918
rtoes 2.33011
lfemur 1.1679 -42.3482 -7.66582
ltibia -4.05448
lfoot -29.5281 51.9225
ltoes 17.0343
244
root 0.490031 17.564 9.27224 12.1891 -3.36978 -9.70942
lowerback 4.31047 0.978079 7.16721
upperback -5.30638 2.03112 1.93264
thorax -7.85918 0.643282 -2.19245
lowerneck -5.12239 -3.52298 -2.34451
upperneck 19.5915 -6.07819 7.77319
head 7.12992 -2.46748 2.43929
rclavicle -2.00151e-014 4.01545e-014
rhumerus 5.78595 33.2944 -67.9833
rradius 113.897
rwrist 5.48295
rhand 22.4497 -32.6173
rfingers 7.12502
rthumb 46.81 -55.3667
lclavicle -2.00151e-014 4.01545e-014
lhumerus -35.6463 -17.9326 99.2312
lradius 105.945
lwrist 18.5113
lhand -30.1998 -9.26317
lfingers 7.12502
lthumb -3.51042 20.6877
rfemur -8.52876 21.3105 25.1375
rtibia 4.71465
rfoot -11.4298 -21.2725
rtoes 2.084
lfemur 1.20719 -42.2956 -7.68897
ltibia -4.08483
lfoot -29.4512 51.9524
ltoes 16.9609
245
root 0.487108 17.5629 9.26948 12.1652 -3.43284 -9.63916
lowerback 4.29676 1.02154 7.11273
upperback -5.31185 2.08023 1.8775
thorax -7.85151 0.668906 -2.22524
lowerneck -5.40171 -3.53046 -2.57822
upperneck 19.8608 -6.1542 8.14243
head 7.29012 -2.47671 2.58982
rclavicle 1.00635e-014 -3.77691e-014
rhumerus 5.71164 33.3732 -68.0689
rradius 113.658
rwrist 5.76603
rhand 22.2969 -32.5728
rfingers 7.12502
rthumb 46.6685 -55.3837
lclavicle 1.00635e-014 -3.77691e-014
lhumerus -35.6246 -18.0377 99.281
lradius 105.921
lwrist 18.5505
lhand -30.0672 -9.40732
lfingers 7.12502
lthumb -3.38239 20.5456
rfemur -8.53178 21.1658 25.0678
rtibia 4.7332
rfoot -11.4413 -21.1108
rtoes 2.0187
lfemur 1.25323 -42.2484 -7.79303
ltibia -4.09498
lfoot -29.3317 51.9858
ltoes 16.8298
246
root 0.483807 17.5616 9.26588 12.1391 -3.48497 -9.54061
lowerback 4.29746 1.03836 6.99184
upperback -5.35697 2.09376 1.84718
thorax -7.90101 0.679039 -2.19182
lowerneck -5.57345 -3.51827 -2.72013
upperneck 20.0574 -6.17669 8.34777
head 7.39707 -2.47142 2.67782
rclavicle 6.79595e-015 2.8625e-014
rhumerus 5.57389 33.5132 -68.2005
rradius 113.47
rwrist 6.00698
rhand 21.9806 -32.6065
rfingers 7.12502
rthumb 46.3755 -55.543
lclavicle 6.79595e-015 2.8625e-014
lhumerus -35.627 -18.0249 99.355
lradius 105.865
lwrist 18.535
lhand -29.8808 -9.40568
lfingers 7.12502
lthumb -3.20237 20.55
rfemur -8.52125 21.0925 24.9758
rtibia 4.71663
rfoot -11.3693 -21.0775
rtoes 1.68373
lfemur 1.27295 -42.1598 -7.90653
ltibia -4.09546
lfoot -29.2178 51.9509
ltoes 16.6424
247
root 0.480366 17.5594 9.2636 12.1158 -3.50461 -9.4978
lowerback 4.27386 1.04622 6.9372
upperback -5.42619 2.10134 1.83991
thorax -7.96272 0.682312 -2.16974
lowerneck -5.61145 -3.52759 -2.71807
upperneck 20.1281 -6.18555 8.2957
head 7.42595 -2.47714 2.65944
rclavicle 1.28837e-014 7.55382e-015
rhumerus 5.33396 33.6257 -68.4215
rradius 113.342
rwrist 6.1238
rhand 21.8429 -32.6128
rfingers 7.12502
rthumb 46.2479 -55.6034
lclavicle 1.28837e-014 7.55382e-015
lhumerus -35.681 -18.0208 99.4985
lradius 105.782
lwrist 18.4178
lhand -29.9131 -9.34126
lfingers 7.12502
lthumb -3.23357 20.614
rfemur -8.48286 21.1477 24.9616
rtibia 4.67464
rfoot -11.2489 -21.182
rtoes 0.971828
lfemur 1.30164 -42.0908 -7.95083
ltibia -4.10825
lfoot -29.32 51.8451
ltoes 16.7312
248
root 0.477307 17.5569 9.26401 12.0628 -3.48231 -9.48269
lowerback 4.19652 1.04674 6.92903
upperback -5.46951 2.09661 1.8384
thorax -7.96505 0.679554 -2.16459
lowerneck -5.50279 -3.54243 -2.66242
upperneck 19.94 -6.15947 8.10418
head 7.3356 -2.48409 2.58976
rclavicle -1.2188e-014 -3.89618e-014
rhumerus 5.02296 33.6697 -68.7126
rradius 113.254
rwrist 6.12624
rhand 21.9317 -32.5118
rfingers 7.12502
rthumb 46.3302 -55.4675
lclavicle -1.2188e-014 -3.89618e-014
lhumerus -35.7915 -18.0446 99.6418
lradius 105.762
lwrist 18.2969
lhand -29.9848 -9.17084
lfingers 7.12502
lthumb -3.30279 20.7833
rfemur -8.39543 21.1004 24.988
rtibia 4.63388
rfoot -11.1936 -21.1855
rtoes 0.467526
lfemur 1.43997 -42.2153 -8.04369
ltibia -4.15763
lfoot -29.4786 51.866
ltoes 16.913
249
root 0.474012 17.5544 9.26516 11.9947 -3.41766 -9.50405
lowerback 4.07001 1.03956 6.93627
upperback -5.47083 2.07747 1.86275
thorax -7.89471 0.672984 -2.13775
lowerneck -5.71086 -3.52953 -2.61377
upperneck 20.1121 -6.14447 8.01956
head 7.4246 -2.47075 2.55262
rclavicle 6.89534e-015 -2.10712e-014
rhumerus 4.72657 33.632 -68.9446
rradius 113.198
rwrist 6.07844
rhand 22.2202 -32.5137
rfingers 7.12502
rthumb 46.5975 -55.3552
lclavicle 6.89534e-015 -2.10712e-014
lhumerus -35.8708 -18.0559 99.7484
lradius 105.794
lwrist 18.247
lhand -29.9227 -9.04938
lfingers 7.12502
lthumb -3.24278 20.9057
rfemur -8.29402 20.9614 25.054
rtibia 4.61279
rfoot -11.2584 -21.074
rtoes 0.512774
lfemur 1.62193 -42.4328 -8.11205
ltibia -4.24204
lfoot -29.5242 52
ltoes 16.8693
250
root 0.46967 17.5521 9.26597 11.918 -3.34236 -9.58302
lowerback 3.96114 1.02362 6.96921
upperback -5.46965 2.05206 1.91671
thorax -7.83325 0.662537 -2.09381
lowerneck -6.02133 -3.53967 -2.43414
upperneck 20.3101 -6.15622 7.81212
head 7.53506 -2.4678 2.44892
rclavicle -7.26806e-015 -7.95139e-015
rhumerus 4.49943 33.5775 -69.1478
rradius 113.121
rwrist 6.02523
rhand 22.5375 -32.6194
rfingers 7.12502
rthumb 46.8912 -55.3334
lclavicle -7.26806e-015 -7.95139e-015
lhumerus -35.9397 -18.0168 99.8372
lradius 105.815
lwrist 18.2461
lhand -29.7754 -9.13224
lfingers 7.12502
lthumb -3.10053 20.825
rfemur -8.18397 20.9055 25.1942
rtibia 4.61012
rfoot -11.4073 -20.9982
rtoes 1.05729
lfemur 1.80393 -42.6135 -8.10152
ltibia -4.32891
lfoot -29.4592 52.1438
ltoes 16.6539
251
root 0.465262 17.5505 9.26527 11.8554 -3.28325 -9.61472
lowerback 3.8757 0.998539 6.94975
upperback -5.5238 2.01512 1.96021
thorax -7.84735 0.64554 -2.03159
lowerneck -6.09151 -3.55176 -2.13257
upperneck 20.3123 -6.14518 7.47223
head 7.52877 -2.46742 2.28596
rclavicle 6.23687e-015 1.15295e-014
rhumerus 4.27504 33.5988 -69.3943
rradius 113.019
rwrist 6.02446
rhand 22.6873 -32.6604
rfingers 7.12502
rthumb 47.0297 -55.3135
lclavicle 6.23687e-015 1.15295e-014
lhumerus -36.1013 -17.932 99.9298
lradius 105.82
lwrist 18.2521
lhand -29.6758 -9.36596
lfingers 7.12502
lthumb -3.00438 20.5926
rfemur -8.12577 20.8643 25.2693
rtibia 4.64419
rfoot -11.5109 -20.9644
rtoes 1.56145
lfemur 1.93644 -42.7947 -8.1321
ltibia -4.38091
lfoot -29.2927 52.3138
ltoes 16.319
252
root 0.461665 17.5489 9.26244 11.8059 -3.21879 -9.57133
lowerback 3.81027 0.980314 6.87622
upperback -5.62144 1.9859 1.97573
thorax -7.91977 0.631904 -1.97032
lowerneck -6.29485 -3.53109 -2.19971
upperneck 20.6416 -6.14146 7.5082
head 7.67697 -2.45452 2.30776
rclavicle -4.65902e-016 1.47101e-014
rhumerus 3.96542 33.6247 -69.629
rradius 112.945
rwrist 6.09048
rhand 22.7535 -32.6173
rfingers 7.12502
rthumb 47.091 -55.2433
lclavicle -4.65902e-016 1.47101e-014
lhumerus -36.3254 -17.9019 100.06
lradius 105.843
lwrist 18.2701
lhand -29.6659 -9.57638
lfingers 7.12502
lthumb -2.99481 20.3823
rfemur -8.12372 20.789 25.2404
rtibia 4.71387
rfoot -11.6046 -20.9462
rtoes 1.83918
lfemur 1.97616 -42.8765 -8.19846
ltibia -4.39137
lfoot -29.0148 52.3965
ltoes 15.8629
253
root 0.457858 17.5466 9.2596 11.7174 -3.16771 -9.51378
lowerback 3.76881 0.979013 6.78894
upperback -5.68852 1.97723 1.96888
thorax -7.97058 0.629806 -1.92752
lowerneck -6.51068 -3.5191 -2.19915
upperneck 20.787 -6.14 7.52278
head 7.76476 -2.44355 2.30976
rclavicle -2.0363e-014 1.19271e-014
rhumerus 3.6625 33.5619 -69.8249
rradius 112.866
rwrist 6.13254
rhand 22.7129 -32.4809
rfingers 7.12502
rthumb 47.0534 -55.1236
lclavicle -2.0363e-014 1.19271e-014
lhumerus -36.5123 -17.9491 100.157
lradius 105.91
lwrist 18.3179
lhand -29.5817 -9.54117
lfingers 7.12502
lthumb -2.91352 20.4187
rfemur -8.08389 20.6333 25.2054
rtibia 4.78376
rfoot -11.692 -20.8316
rtoes 1.94924
lfemur 2.07601 -42.9082 -8.31967
ltibia -4.40162
lfoot -28.8752 52.3848
ltoes 15.6422
254
root 0.454074 17.5434 9.25773 11.6043 -3.12914 -9.4669
lowerback 3.69746 1.01712 6.74067
upperback -5.71123 2.01817 1.9485
thorax -7.95011 0.652448 -1.92478
lowerneck -6.68602 -3.54425 -2.12562
upperneck 20.7439 -6.17264 7.47702
head 7.78086 -2.45401 2.27591
rclavicle -1.09704e-014 6.04305e-014
rhumerus 3.41111 33.3916 -69.9188
rradius 112.795
rwrist 6.13706
rhand 22.5872 -32.3737
rfingers 7.12502
rthumb 46.9371 -55.0675
lclavicle -1.09704e-014 6.04305e-014
lhumerus -36.5999 -18.1119 100.245
lradius 105.93
lwrist 18.3861
lhand -29.403 -9.3637
lfingers 7.12502
lthumb -2.74093 20.5984
rfemur -7.98967 20.416 25.1886
rtibia 4.81219
rfoot -11.7954 -20.6446
rtoes 2.1203
lfemur 2.23179 -42.887 -8.4548
ltibia -4.43481
lfoot -28.8306 52.2865
ltoes 15.6702
255
root 0.450797 17.5387 9.25548 11.4895 -3.05701 -9.46808
lowerback 3.62104 1.06981 6.76972
upperback -5.74855 2.08676 1.95291
thorax -7.93986 0.684303 -1.94135
lowerneck -6.76953 -3.61224 -2.19893
upperneck 20.7043 -6.254 7.4808
head 7.78969 -2.49659 2.28027
rclavicle -1.47163e-014 -9.14409e-015
rhumerus 3.1898 33.2016 -69.9113
rradius 112.763
rwrist 6.18412
rhand 22.4816 -32.3272
rfingers 7.12502
rthumb 46.8395 -55.0638
lclavicle -1.47163e-014 -9.14409e-015
lhumerus -36.6656 -18.3018 100.396
lradius 105.863
lwrist 18.4135
lhand -29.3004 -9.22728
lfingers 7.12502
lthumb -2.64181 20.7361
rfemur -7.87443 20.2228 25.2332
rtibia 4.83396
rfoot -11.983 -20.4775
rtoes 2.57994
lfemur 2.311 -42.6327 -8.44677
ltibia -4.47218
lfoot -28.5581 51.9501
ltoes 15.6461
256
root 0.44717 17.5338 9.25132 11.3555 -2.96861 -9.52698
lowerback 3.61576 1.07818 6.83348
upperback -5.81239 2.10884 1.98921
thorax -8.0048 0.689295 -1.94076
lowerneck -6.95587 -3.66416 -2.42148
upperneck 20.876 -6.33353 7.60372
head 7.89571 -2.53157 2.34879
rclavicle -1.70458e-014 -2.26615e-014
rhumerus 3.09145 33.1042 -69.8963
rradius 112.785
rwrist 6.11424
rhand 22.3941 -32.4208
rfingers 7.12502
rthumb 46.7584 -55.1927
lclavicle -1.70458e-014 -2.26615e-014
lhumerus -36.7912 -18.3798 100.481
lradius 105.822
lwrist 18.356
lhand -29.3476 -9.30357
lfingers 7.12502
lthumb -2.68745 20.6592
rfemur -7.77122 19.9854 25.363
rtibia 4.91718
rfoot -12.1046 -20.2688
rtoes 2.60885
lfemur 2.35526 -42.2559 -8.32705
ltibia -4.49014
lfoot -28.0762 51.4972
ltoes 15.4066
257
root 0.442961 17.5301 9.24755 11.2194 -2.90362 -9.56306
lowerback 3.62012 1.06168 6.86194
upperback -5.87 2.09487 2.01836
thorax -8.07211 0.678464 -1.92474
lowerneck -7.23887 -3.67396 -2.55321
upperneck 21.1307 -6.35831 7.65266
head 8.03942 -2.53585 2.3816
rclavicle -2.66962e-015 1.98785e-015
rhumerus 3.12395 33.071 -69.859
rradius 112.858
rwrist 5.92925
rhand 22.4507 -32.5863
rfingers 7.12502
rthumb 46.8108 -55.3354
lclavicle -2.66962e-015 1.98785e-015
lhumerus -36.9141 -18.4121 100.458
lradius 105.829
lwrist 18.3108
lhand -29.3927 -9.58746
lfingers 7.12502
lthumb -2.73094 20.3748
rfemur -7.68073 19.7025 25.4764
rtibia 5.00748
rfoot -12.0831 -20.0674
rtoes 1.94565
lfemur 2.45246 -41.9669 -8.28544
ltibia -4.52431
lfoot -27.5025 51.2152
ltoes 14.8679
